<?xml version="1.0" encoding="UTF-8" standalone="no"?>
<!DOCTYPE svg PUBLIC "-//W3C//DTD SVG 1.1//EN" "http://www.w3.org/Graphics/SVG/1.1/DTD/svg11.dtd">
<svg width="100%" height="100%" viewBox="0 0 1184 805" version="1.1" xmlns="http://www.w3.org/2000/svg" xmlns:xlink="http://www.w3.org/1999/xlink" xml:space="preserve" style="fill-rule:evenodd;clip-rule:evenodd;stroke-linecap:round;stroke-linejoin:round;stroke-miterlimit:1.5;">
    <g id="hiw.-3">
        <path d="M16.686,474.966L586.532,803.966L1167.08,468.786L597.235,139.786L16.686,474.966Z" style="fill:#505a78;fill-opacity:0.15;"/>
        <path d="M16.686,424.966L586.532,753.966L1167.08,418.786L597.235,89.786L16.686,424.966Z" style="fill:#dcdee4;"/>
        <clipPath id="_clip1">
            <path d="M16.686,424.966L586.532,753.966L1167.08,418.786L597.235,89.786L16.686,424.966Z"/>
        </clipPath>
        <g clip-path="url(#_clip1)">
            <path d="M1045.94,488.727L610.996,237.613" style="fill:none;stroke:#fff;stroke-width:41.67px;"/>
            <path d="M301.609,589.466L591.883,421.876L306.961,257.376" style="fill:none;stroke:#fff;stroke-width:41.67px;"/>
            <path d="M441.863,335.262L610.996,237.613" style="fill:none;stroke:#fff;stroke-width:41.67px;"/>
            <path d="M428.647,662.811L1009.2,327.631" style="fill:none;stroke:#fff;stroke-width:41.67px;"/>
        </g>
        <path d="M16.686,424.966L586.532,753.966L1167.08,418.786L597.235,89.786L16.686,424.966Z" style="fill:none;stroke:#505a78;stroke-width:29.17px;stroke-dasharray:2041.67,58.33,2.92,58.33;stroke-dashoffset:1166.67;"/>
        <ellipse cx="300.25" cy="357.171" rx="55.064" ry="24.638" style="fill:#68718b;fill-opacity:0.5;"/>
        <ellipse cx="911.257" cy="478.609" rx="55.064" ry="24.638" style="fill:#68718b;fill-opacity:0.5;"/>
        <ellipse cx="591.883" cy="657.05" rx="55.064" ry="24.638" style="fill:#68718b;fill-opacity:0.5;"/>
        <path d="M300.25,3.501C369.239,3.501 425.25,60.565 425.25,130.851C425.25,192.235 329.911,324.397 305.759,356.893C304.464,358.636 302.421,359.664 300.249,359.664C298.078,359.664 296.035,358.637 294.74,356.894C270.588,324.397 175.25,192.235 175.25,130.851C175.25,60.565 231.26,3.501 300.25,3.501Z" style="fill:#27b7ff;"/>
        <clipPath id="_clip2">
            <path d="M300.25,3.501C369.239,3.501 425.25,60.565 425.25,130.851C425.25,192.235 329.911,324.397 305.759,356.893C304.464,358.636 302.421,359.664 300.249,359.664C298.078,359.664 296.035,358.637 294.74,356.894C270.588,324.397 175.25,192.235 175.25,130.851C175.25,60.565 231.26,3.501 300.25,3.501Z"/>
        </clipPath>
        <g clip-path="url(#_clip2)">
            <path d="M256.768,82.804L343.668,82.804L337.727,76.484L261.888,76.484L256.768,82.804M354.222,84.257C356.055,86.406 357.129,89.124 357.129,92.284L357.129,171.283C357.129,178.217 351.424,183.923 344.49,183.923L256.01,183.923C249.076,183.923 243.37,178.217 243.37,171.283L243.37,92.284C243.37,89.124 244.444,86.406 246.277,84.257L254.999,73.64C256.768,71.491 259.36,70.164 262.33,70.164L338.17,70.164C341.14,70.164 343.731,71.491 345.438,73.64L354.222,84.257M262.33,164.963L300.25,164.963L300.25,146.003L262.33,146.003L262.33,164.963Z" style="fill:#fff;fill-rule:nonzero;"/>
        </g>
        <path d="M911.257,122.806C980.246,122.806 1036.26,179.87 1036.26,250.156C1036.26,311.539 940.918,443.701 916.765,476.198C915.47,477.941 913.427,478.968 911.256,478.969C909.085,478.969 907.042,477.942 905.747,476.199C881.595,443.701 786.257,311.539 786.257,250.156C786.257,179.87 842.267,122.806 911.257,122.806Z" style="fill:#27b7ff;"/>
        <clipPath id="_clip3">
            <path d="M911.257,122.806C980.246,122.806 1036.26,179.87 1036.26,250.156C1036.26,311.539 940.918,443.701 916.765,476.198C915.47,477.941 913.427,478.968 911.256,478.969C909.085,478.969 907.042,477.942 905.747,476.199C881.595,443.701 786.257,311.539 786.257,250.156C786.257,179.87 842.267,122.806 911.257,122.806Z"/>
        </clipPath>
        <g clip-path="url(#_clip3)">
            <path d="M867.775,202.109L954.675,202.109L948.734,195.789L872.894,195.789L867.775,202.109M965.229,203.562C967.062,205.711 968.136,208.429 968.136,211.588L968.136,290.588C968.136,297.522 962.43,303.228 955.496,303.228L867.017,303.228C860.083,303.228 854.377,297.522 854.377,290.588L854.377,211.588C854.377,208.429 855.451,205.711 857.284,203.562L866.006,192.945C867.775,190.796 870.366,189.469 873.337,189.469L949.176,189.469C952.147,189.469 954.738,190.796 956.444,192.945L965.229,203.562M873.337,284.268L911.257,284.268L911.257,265.308L873.337,265.308L873.337,284.268Z" style="fill:#fff;fill-rule:nonzero;"/>
        </g>
        <path d="M590.887,300.887C659.877,300.887 715.887,357.951 715.887,428.237C715.887,489.621 620.549,621.783 596.396,654.279C595.101,656.022 593.058,657.049 590.887,657.05C588.716,657.05 586.672,656.023 585.377,654.28C561.226,621.783 465.887,489.621 465.887,428.237C465.887,357.951 521.898,300.887 590.887,300.887Z" style="fill:#27b7ff;"/>
        <clipPath id="_clip4">
            <path d="M590.887,300.887C659.877,300.887 715.887,357.951 715.887,428.237C715.887,489.621 620.549,621.783 596.396,654.279C595.101,656.022 593.058,657.049 590.887,657.05C588.716,657.05 586.672,656.023 585.377,654.28C561.226,621.783 465.887,489.621 465.887,428.237C465.887,357.951 521.898,300.887 590.887,300.887Z"/>
        </clipPath>
        <g clip-path="url(#_clip4)">
            <path d="M547.406,380.19L634.305,380.19L628.365,373.87L552.525,373.87L547.406,380.19M644.86,381.643C646.692,383.792 647.767,386.51 647.767,389.67L647.767,468.669C647.767,475.603 642.061,481.309 635.127,481.309L546.647,481.309C539.713,481.309 534.007,475.603 534.007,468.669L534.007,389.67C534.007,386.51 535.082,383.792 536.915,381.643L545.636,371.026C547.406,368.877 549.997,367.55 552.967,367.55L628.807,367.55C631.777,367.55 634.369,368.877 636.075,371.026L644.86,381.643M552.967,462.349L590.887,462.349L590.887,443.389L552.967,443.389L552.967,462.349Z" style="fill:#fff;fill-rule:nonzero;"/>
        </g>
    </g>
</svg>
