<?xml version="1.0" encoding="UTF-8" standalone="no"?>
<!DOCTYPE svg PUBLIC "-//W3C//DTD SVG 1.1//EN" "http://www.w3.org/Graphics/SVG/1.1/DTD/svg11.dtd">
<svg width="100%" height="100%" viewBox="0 0 1159 863" version="1.1" xmlns="http://www.w3.org/2000/svg" xmlns:xlink="http://www.w3.org/1999/xlink" xml:space="preserve" style="fill-rule:evenodd;clip-rule:evenodd;stroke-linecap:round;stroke-linejoin:round;stroke-miterlimit:1.5;">
    <g id="hiw.-2">
        <g>
            <g id="Picup-Package">
                <path d="M284.971,173.175L555.003,329.078L555.003,640.884L284.971,796.787L14.939,640.884L14.939,329.078L284.971,173.175Z" style="fill:#27b7ff;"/>
                <path d="M14.939,640.884L284.971,796.787L284.971,484.964L555.003,329.078L284.971,173.175L14.939,329.078L14.939,640.884Z" style="fill:#bae8ff;"/>
                <path d="M14.939,329.078L284.971,484.964L284.971,796.787L14.939,640.884L14.939,329.078Z" style="fill:#6ed1ff;"/>
                <path d="M120.921,390.307L178.99,423.83L178.99,490.886L120.921,457.36L120.921,390.307Z" style="fill:#505a78;"/>
                <path d="M120.921,390.307L178.987,423.835L449.056,267.91L390.987,234.384L120.921,390.307Z" style="fill:#505a78;"/>
                <path d="M284.971,173.175L555.003,329.078L555.003,640.884L284.971,796.787L14.939,640.884L14.939,329.078L284.971,173.175Z" style="fill:none;stroke:#505a78;stroke-width:22.92px;stroke-dasharray:1604.17,45.83,2.29,45.83;"/>
            </g>
            <path d="M153.71,525.357C154.359,525.686 155.008,526.033 155.658,526.392C156.026,526.598 156.394,526.807 156.762,527.021C158.763,528.197 160.76,529.511 162.74,530.978C166.676,533.892 170.529,537.372 174.153,541.29C178.707,546.212 182.892,551.812 186.467,557.763C189.85,563.394 192.684,569.326 194.816,575.255C196.641,580.329 197.948,585.392 198.685,590.248C199.497,595.587 199.622,600.671 199.059,605.261C198.49,609.907 197.209,614.035 195.277,617.452C193.1,621.302 190.1,624.232 186.467,626.084C182.642,628.034 178.119,628.776 173.195,628.252C170.431,627.958 167.544,627.267 164.596,626.195C162.015,625.255 159.39,624.024 156.762,622.525C153.951,620.922 151.138,619.014 148.377,616.831C145.601,614.635 142.877,612.163 140.261,609.461C139.612,608.791 138.97,608.108 138.336,607.411L138.336,632.941C138.336,640.536 132.794,643.502 125.968,639.561C119.142,635.62 113.601,626.255 113.601,618.66L113.601,551.692C113.527,549.516 113.582,547.408 113.763,545.386C114.184,540.711 115.297,536.514 117.052,532.989C117.446,532.199 117.872,531.443 118.328,530.723C114.533,526.181 111.963,520.188 111.963,515.016C111.963,507.421 117.505,504.454 124.331,508.395L153.71,525.357ZM156.362,553.491C155.475,552.988 154.59,552.547 153.712,552.184C151.989,551.47 150.301,551.045 148.714,550.928C147.083,550.808 145.559,551.009 144.199,551.519C142.437,552.18 140.951,553.358 139.844,554.987C138.962,556.284 138.321,557.863 137.95,559.663C137.515,561.774 137.448,564.186 137.749,566.748C138.014,568.992 138.562,571.352 139.376,573.731C140.356,576.592 141.711,579.467 143.354,582.179C145.027,584.939 146.992,587.527 149.132,589.771C151.416,592.164 153.883,594.146 156.362,595.595C158.846,597.046 161.326,597.958 163.626,598.239C165.814,598.506 167.825,598.211 169.536,597.384C171.19,596.584 172.556,595.288 173.55,593.572C174.337,592.211 174.886,590.581 175.17,588.754C175.542,586.365 175.478,583.647 174.974,580.779C174.428,577.672 173.355,574.397 171.855,571.213C169.985,567.244 167.461,563.439 164.57,560.242C162.964,558.467 161.25,556.887 159.494,555.562C158.621,554.902 157.739,554.311 156.855,553.779C156.691,553.681 156.527,553.585 156.362,553.491Z" style="fill:#fff;"/>
        </g>
        <path d="M442.816,557.125L709.645,263.855L709.645,847.239L442.816,647.041L442.816,557.125Z" style="fill:#505a78;fill-opacity:0.243137;"/>
        <g>
            <path d="M1143.83,13.18L709.645,263.855L709.645,847.239L1143.83,596.563L1143.83,13.18Z" style="fill:#fff;stroke:#505a78;stroke-width:22.92px;"/>
            <path d="M808.376,346.614L1039.89,212.949" style="fill:#dcdee4;stroke:#b3b8c5;stroke-width:20.83px;stroke-dasharray:2083.33,83.33,2.08,62.5;"/>
            <path d="M808.376,442.032L1039.89,308.367" style="fill:#dcdee4;stroke:#b3b8c5;stroke-width:20.83px;stroke-dasharray:2083.33,83.33,2.08,62.5;"/>
            <path d="M808.376,538.71L1039.89,405.045" style="fill:#dcdee4;stroke:#b3b8c5;stroke-width:20.83px;stroke-dasharray:2083.33,83.33,2.08,62.5;"/>
            <path d="M808.376,633.137L940.53,556.838" style="fill:#dcdee4;stroke:#b3b8c5;stroke-width:20.83px;stroke-dasharray:2083.33,83.33,2.08,62.5;"/>
        </g>
        <path d="M509.735,518.489L442.816,557.125L442.816,647.041L509.735,608.405L509.735,518.489Z" style="fill:#fff;"/>
    </g>
</svg>
