<?xml version="1.0" encoding="UTF-8" standalone="no"?>
<!DOCTYPE svg PUBLIC "-//W3C//DTD SVG 1.1//EN" "http://www.w3.org/Graphics/SVG/1.1/DTD/svg11.dtd">
<svg width="100%" height="100%" viewBox="0 0 1071 555" version="1.1" xmlns="http://www.w3.org/2000/svg" xmlns:xlink="http://www.w3.org/1999/xlink" xml:space="preserve" style="fill-rule:evenodd;clip-rule:evenodd;stroke-linecap:round;stroke-linejoin:round;stroke-miterlimit:1.5;">
    <g id="hiw.-4">
        <g>
            <ellipse cx="629.947" cy="542.302" rx="426.98" ry="9.321" style="fill:#b3b8c5;"/>
            <path d="M829.703,97.644L943.799,97.644L1060.25,252.91L1060.25,446.805L947.605,446.267C947.638,445.307 947.655,444.343 947.655,443.375C947.655,397.753 910.615,360.714 864.993,360.714C819.371,360.714 782.332,397.753 782.332,443.375C782.332,444.078 782.341,444.779 782.358,445.478L482.598,444.046C482.6,443.823 482.601,443.599 482.601,443.375C482.601,397.753 445.562,360.714 399.94,360.714C354.357,360.714 317.343,397.689 317.279,443.257L206.287,442.727C206.287,442.727 206.287,211.218 206.287,86.398C206.287,43.54 241.03,8.797 283.889,8.796L829.703,8.796L829.703,97.644Z" style="fill:#fff;"/>
            <clipPath id="_clip1">
                <path d="M829.703,97.644L943.799,97.644L1060.25,252.91L1060.25,446.805L947.605,446.267C947.638,445.307 947.655,444.343 947.655,443.375C947.655,397.753 910.615,360.714 864.993,360.714C819.371,360.714 782.332,397.753 782.332,443.375C782.332,444.078 782.341,444.779 782.358,445.478L482.598,444.046C482.6,443.823 482.601,443.599 482.601,443.375C482.601,397.753 445.562,360.714 399.94,360.714C354.357,360.714 317.343,397.689 317.279,443.257L206.287,442.727C206.287,442.727 206.287,211.218 206.287,86.398C206.287,43.54 241.03,8.797 283.889,8.796L829.703,8.796L829.703,97.644Z"/>
            </clipPath>
            <g clip-path="url(#_clip1)">
                <rect x="206.287" y="366.1" width="193.652" height="77.275" style="fill:#81889e;"/>
                <path d="M401.025,359.945L402.077,360.227L403.065,360.687L403.957,361.312L404.727,362.083L405.352,362.975L405.813,363.962L406.095,365.015L406.19,366.1L406.19,443.375L406.095,444.461L405.813,445.513L405.352,446.5L404.727,447.393L403.957,448.163L403.065,448.788L402.077,449.248L401.025,449.53L399.94,449.625L206.287,449.625L205.202,449.53L204.15,449.248L203.162,448.788L202.27,448.163L201.499,447.393L200.875,446.5L200.414,445.513L200.132,444.461L200.037,443.375L200.037,366.1L200.132,365.015L200.414,363.962L200.875,362.975L201.499,362.083L202.27,361.312L203.162,360.687L204.15,360.227L205.202,359.945L206.287,359.85L399.94,359.85L401.025,359.945ZM212.537,372.35L212.537,437.125L393.69,437.125L393.69,372.35L212.537,372.35Z" style="fill:#505a78;"/>
                <rect x="447.607" y="408.167" width="367.003" height="50.067" style="fill:#81889e;"/>
                <path d="M815.695,402.012L816.747,402.294L817.735,402.754L818.627,403.379L819.398,404.15L820.022,405.042L820.483,406.03L820.765,407.082L820.86,408.167L820.86,458.234L820.765,459.319L820.483,460.371L820.022,461.359L819.398,462.251L818.627,463.022L817.735,463.647L816.747,464.107L815.695,464.389L814.61,464.484L447.607,464.484L446.521,464.389L445.469,464.107L444.482,463.647L443.589,463.022L442.819,462.251L442.194,461.359L441.733,460.371L441.451,459.319L441.357,458.234L441.357,408.167L441.451,407.082L441.733,406.03L442.194,405.042L442.819,404.15L443.589,403.379L444.482,402.754L445.469,402.294L446.521,402.012L447.607,401.917L814.61,401.917L815.695,402.012ZM453.857,414.417L453.857,451.984L808.36,451.984L808.36,414.417L453.857,414.417Z" style="fill:#505a78;"/>
                <rect x="870.075" y="369.529" width="190.173" height="77.275" style="fill:#81889e;"/>
                <path d="M1061.33,363.374L1062.39,363.656L1063.37,364.117L1064.27,364.742L1065.04,365.512L1065.66,366.404L1066.12,367.392L1066.4,368.444L1066.5,369.529L1066.5,446.805L1066.4,447.89L1066.12,448.942L1065.66,449.93L1065.04,450.822L1064.27,451.593L1063.37,452.217L1062.39,452.678L1061.33,452.96L1060.25,453.055L870.075,453.055L868.99,452.96L867.938,452.678L866.95,452.217L866.058,451.593L865.288,450.822L864.663,449.93L864.202,448.942L863.92,447.89L863.825,446.805L863.825,369.529L863.92,368.444L864.202,367.392L864.663,366.404L865.288,365.512L866.058,364.742L866.95,364.117L867.938,363.656L868.99,363.374L870.075,363.279L1060.25,363.279L1061.33,363.374ZM876.325,375.779L876.325,440.555L1054,440.555L1054,375.779L876.325,375.779Z" style="fill:#505a78;"/>
                <g>
                    <path d="M827.35,155.869L827.35,252.91L1000.47,252.91L924.391,155.869L827.35,155.869Z" style="fill:#dcdee4;"/>
                    <path d="M925.331,149.69L926.249,149.902L927.126,150.249L927.94,150.724L928.673,151.317L929.309,152.013L1005.39,249.054L1005.98,249.952L1006.4,250.938L1006.65,251.982L1006.72,253.054L1006.6,254.121L1006.31,255.152L1005.84,256.118L1005.21,256.988L1004.44,257.738L1003.55,258.346L1002.58,258.794L1001.54,259.068L1000.47,259.16L827.35,259.16L826.264,259.065L825.212,258.783L824.225,258.323L823.332,257.698L822.562,256.927L821.937,256.035L821.477,255.048L821.195,253.995L821.1,252.91L821.1,155.869L821.195,154.784L821.477,153.731L821.937,152.744L822.562,151.851L823.332,151.081L824.225,150.456L825.212,149.996L826.264,149.714L827.35,149.619L924.391,149.619L925.331,149.69ZM987.629,246.66L921.349,162.119L833.6,162.119L833.6,246.66L987.629,246.66Z" style="fill:#505a78;"/>
                </g>
                <path d="M771.298,361.686L773.134,366.058L773.134,366.142L771.298,370.514L766.926,372.35L492.039,372.35L487.666,370.514L485.831,366.142L485.831,366.058L487.666,361.686L492.039,359.85L766.926,359.85L771.298,361.686Z" style="fill:#505a78;"/>
                <path d="M831.764,248.496L833.6,252.868L833.6,378.974L831.764,383.347L827.391,385.183L827.308,385.183L822.936,383.347L821.1,378.974L821.1,252.868L822.936,248.496L827.308,246.66L827.391,246.66L831.764,248.496Z" style="fill:#505a78;"/>
                <path d="M1004.88,248.496L1006.72,252.868L1006.72,369.571L1004.88,373.944L1000.51,375.779L1000.43,375.779L996.057,373.944L994.221,369.571L994.221,252.868L996.057,248.496L1000.43,246.66L1000.51,246.66L1004.88,248.496Z" style="fill:#505a78;"/>
                <path d="M888.104,279.203L889.94,283.575L889.94,283.659L888.104,288.031L883.732,289.867L856.901,289.867L852.529,288.031L850.693,283.659L850.693,283.575L852.529,279.203L856.901,277.367L883.732,277.367L888.104,279.203Z" style="fill:#505a78;"/>
                <g>
                    <rect x="206.287" y="89.579" width="32.319" height="245.147" style="fill:#b3b8c5;"/>
                    <path d="M239.691,83.424L240.744,83.706L241.731,84.167L242.624,84.792L243.394,85.562L244.019,86.454L244.479,87.442L244.761,88.494L244.856,89.579L244.856,334.726L244.761,335.811L244.479,336.864L244.019,337.851L243.394,338.743L242.624,339.514L241.731,340.139L240.744,340.599L239.691,340.881L238.606,340.976L206.287,340.976L205.202,340.881L204.15,340.599L203.162,340.139L202.27,339.514L201.499,338.743L200.875,337.851L200.414,336.864L200.132,335.811L200.037,334.726L200.037,89.579L200.132,88.494L200.414,87.442L200.875,86.454L201.499,85.562L202.27,84.792L203.162,84.167L204.15,83.706L205.202,83.424L206.287,83.329L238.606,83.329L239.691,83.424ZM212.537,95.829L212.537,328.476L232.356,328.476L232.356,95.829L212.537,95.829Z" style="fill:#505a78;"/>
                </g>
                <rect x="1026.69" y="264.232" width="33.56" height="75.458" style="fill:#b3b8c5;"/>
                <clipPath id="_clip2">
                    <rect x="1026.69" y="264.232" width="33.56" height="75.458"/>
                </clipPath>
                <g clip-path="url(#_clip2)">
                    <circle cx="1053.61" cy="286.883" r="14.666" style="fill:#fff;"/>
                    <circle cx="1053.61" cy="316.739" r="14.666" style="fill:#fff;"/>
                </g>
                <path d="M1061.33,258.077L1062.39,258.359L1063.37,258.82L1064.27,259.445L1065.04,260.215L1065.66,261.107L1066.12,262.095L1066.4,263.147L1066.5,264.232L1066.5,339.69L1066.4,340.776L1066.12,341.828L1065.66,342.815L1065.04,343.708L1064.27,344.478L1063.37,345.103L1062.39,345.563L1061.33,345.845L1060.25,345.94L1026.69,345.94L1025.6,345.845L1024.55,345.563L1023.56,345.103L1022.67,344.478L1021.9,343.708L1021.27,342.815L1020.83,341.849L1020.82,341.828L1020.53,340.776L1020.44,339.69L1020.44,264.232L1020.53,263.147L1020.82,262.095L1021.27,261.107L1021.9,260.215L1022.67,259.445L1023.56,258.82L1024.55,258.359L1025.6,258.077L1026.69,257.982L1060.25,257.982L1061.33,258.077ZM1032.94,270.482L1032.94,333.44L1054,333.44L1054,270.482L1032.94,270.482Z" style="fill:#505a78;"/>
            </g>
            <path d="M829.703,97.644L943.799,97.644L1060.25,252.91L1060.25,446.805L947.605,446.267C947.638,445.307 947.655,444.343 947.655,443.375C947.655,397.753 910.615,360.714 864.993,360.714C819.371,360.714 782.332,397.753 782.332,443.375C782.332,444.078 782.341,444.779 782.358,445.478L482.598,444.046C482.6,443.823 482.601,443.599 482.601,443.375C482.601,397.753 445.562,360.714 399.94,360.714C354.357,360.714 317.343,397.689 317.279,443.257L206.287,442.727C206.287,442.727 206.287,211.218 206.287,86.398C206.287,43.54 241.03,8.797 283.889,8.796L829.703,8.796L829.703,97.644Z" style="fill:none;stroke:#505a78;stroke-width:16.67px;stroke-dasharray:1166.67,33.33,1.67,33.33;"/>
            <g>
                <circle cx="399.94" cy="448.261" r="96.453" style="fill:#505a78;"/>
                <circle cx="399.94" cy="448.261" r="50.034" style="fill:#81889e;"/>
            </g>
            <g>
                <circle cx="863.337" cy="448.261" r="96.453" style="fill:#505a78;"/>
                <circle cx="863.337" cy="448.261" r="50.034" style="fill:#81889e;"/>
            </g>
            <path d="M607.722,68.514C609.08,68.428 610.44,68.375 611.8,68.345C612.571,68.332 613.34,68.327 614.111,68.33C618.299,68.369 622.479,68.672 626.624,69.279C634.862,70.487 642.926,72.85 650.512,76.283C660.043,80.596 668.802,86.586 676.285,93.897C683.367,100.815 689.298,108.896 693.761,117.734C697.58,125.298 700.315,133.403 701.86,141.735C703.558,150.898 703.82,160.326 702.642,169.57C701.45,178.93 698.769,188.086 694.726,196.61C690.169,206.217 683.89,214.989 676.285,222.418C668.279,230.24 658.813,236.547 648.506,240.911C642.721,243.36 636.678,245.196 630.508,246.379C625.106,247.415 619.61,247.951 614.111,247.985C608.226,248.022 602.34,247.487 596.561,246.379C590.749,245.265 585.049,243.571 579.572,241.331C578.215,240.776 576.872,240.187 575.544,239.565L575.544,287.59C575.544,301.877 563.945,313.476 549.658,313.476C535.371,313.476 523.771,301.877 523.771,287.59L523.771,161.615C523.618,157.6 523.732,153.576 524.112,149.576C524.992,140.325 527.321,131.22 530.996,122.684C531.82,120.77 532.711,118.886 533.667,117.035C525.723,112.613 520.343,104.13 520.343,94.401C520.343,80.114 531.943,68.514 546.23,68.514L607.722,68.514ZM613.274,118.556C611.418,118.573 609.565,118.706 607.728,118.976C604.12,119.504 600.588,120.538 597.266,122.042C593.852,123.587 590.663,125.621 587.816,128.057C584.128,131.214 581.018,135.045 578.7,139.311C576.855,142.709 575.513,146.375 574.736,150.163C573.826,154.607 573.684,159.218 574.316,163.709C574.87,167.644 576.016,171.489 577.721,175.079C579.771,179.396 582.608,183.333 586.048,186.651C589.548,190.026 593.661,192.761 598.14,194.656C602.92,196.679 608.085,197.727 613.274,197.759C618.472,197.792 623.664,196.814 628.477,194.844C633.056,192.97 637.267,190.231 640.848,186.817C644.31,183.516 647.168,179.595 649.248,175.287C650.897,171.872 652.045,168.21 652.64,164.465C653.418,159.566 653.284,154.523 652.229,149.675C651.087,144.424 648.842,139.427 645.702,135.068C641.786,129.634 636.504,125.217 630.453,122.343C627.092,120.747 623.504,119.637 619.83,119.051C618.001,118.759 616.156,118.604 614.306,118.562C613.962,118.557 613.618,118.555 613.274,118.556Z" style="fill:#27b7ff;"/>
            <rect x="283.807" y="89.579" width="115.746" height="129.999" style="fill:#dcdee4;"/>
            <path d="M400.639,83.424L401.691,83.706L402.678,84.167L403.571,84.792L404.341,85.562L404.966,86.454L405.426,87.442L405.708,88.494L405.803,89.579L405.803,219.579L405.708,220.664L405.426,221.716L404.966,222.704L404.341,223.596L403.571,224.367L402.678,224.991L401.691,225.452L400.639,225.734L399.553,225.829L283.807,225.829L282.722,225.734L281.67,225.452L280.682,224.991L279.79,224.367L279.019,223.596L278.395,222.704L277.934,221.716L277.652,220.664L277.557,219.579L277.557,89.579L277.652,88.494L277.934,87.442L278.395,86.454L279.019,85.562L279.79,84.792L280.682,84.167L281.67,83.706L282.722,83.424L283.807,83.329L399.553,83.329L400.639,83.424ZM290.057,95.829L290.057,213.329L393.303,213.329L393.303,95.829L290.057,95.829Z" style="fill:#505a78;"/>
        </g>
        <path d="M277.101,297.516L63.734,297.516" style="fill:none;stroke:#505a78;stroke-width:12.5px;stroke-dasharray:1250,25,1.25,25;"/>
        <path d="M220.219,223.791L6.852,223.791" style="fill:none;stroke:#505a78;stroke-width:12.5px;stroke-dasharray:100,25,1.25,25;"/>
        <path d="M277.101,145.794L63.734,145.794" style="fill:none;stroke:#505a78;stroke-width:12.5px;stroke-dasharray:1250,25,1.25,25;"/>
    </g>
</svg>
