<?xml version="1.0" encoding="UTF-8" standalone="no"?>
<!DOCTYPE svg PUBLIC "-//W3C//DTD SVG 1.1//EN" "http://www.w3.org/Graphics/SVG/1.1/DTD/svg11.dtd">
<svg width="100%" height="100%" viewBox="0 0 1184 905" version="1.1" xmlns="http://www.w3.org/2000/svg" xmlns:xlink="http://www.w3.org/1999/xlink" xml:space="preserve" style="fill-rule:evenodd;clip-rule:evenodd;stroke-linecap:round;stroke-linejoin:round;stroke-miterlimit:1.5;">
    <g id="hiw.-1">
        <path d="M1167.08,568.786L597.235,239.786L16.686,574.966L586.532,903.966L1167.08,568.786Z" style="fill:#505a78;fill-opacity:0.15;"/>
        <path d="M1167.08,518.786L597.235,189.786L16.686,524.966L586.532,853.966L1167.08,518.786Z" style="fill:#dcdee4;"/>
        <clipPath id="_clip1">
            <path d="M1167.08,518.786L597.235,189.786L16.686,524.966L586.532,853.966L1167.08,518.786Z"/>
        </clipPath>
        <g clip-path="url(#_clip1)">
            <path d="M137.828,455.025L572.771,706.139" style="fill:none;stroke:#fff;stroke-width:41.67px;"/>
            <path d="M882.158,354.286L591.883,521.876L876.806,686.376" style="fill:none;stroke:#fff;stroke-width:41.67px;"/>
            <path d="M741.904,608.49L572.771,706.139" style="fill:none;stroke:#fff;stroke-width:41.67px;"/>
            <path d="M755.12,280.941L174.572,616.121" style="fill:none;stroke:#fff;stroke-width:41.67px;"/>
        </g>
        <path d="M1167.08,518.786L597.235,189.786L16.686,524.966L586.532,853.966L1167.08,518.786Z" style="fill:none;stroke:#505a78;stroke-width:29.17px;stroke-dasharray:2041.67,58.33,2.92,58.33;stroke-dashoffset:1166.67;"/>
        <ellipse cx="591.883" cy="530.209" rx="108.171" ry="48.4" style="fill:#68718b;fill-opacity:0.5;"/>
        <path d="M591.883,0.069C692.958,0.069 775.019,83.672 775.019,186.647C775.019,276.579 635.34,470.207 599.954,517.817C598.057,520.37 595.064,521.876 591.883,521.876C588.702,521.876 585.708,520.371 583.811,517.818C548.427,470.207 408.748,276.579 408.748,186.647C408.748,83.672 490.808,0.069 591.883,0.069Z" style="fill:#27b7ff;"/>
        <path d="M571.23,241.178C571.83,241.178 572.405,240.94 572.829,240.516C573.252,240.092 573.491,239.517 573.491,238.917C573.491,229.984 573.491,197.193 573.491,188.26C573.491,187.66 573.729,187.085 574.153,186.661C574.577,186.237 575.152,185.999 575.751,185.999C582.333,185.999 601.434,185.999 608.016,185.999C608.615,185.999 609.19,186.237 609.614,186.661C610.038,187.085 610.276,187.66 610.276,188.26C610.276,197.193 610.276,229.984 610.276,238.917C610.276,239.517 610.514,240.092 610.938,240.516C611.362,240.94 611.937,241.178 612.537,241.178C620.353,241.178 646.182,241.178 653.998,241.178C654.597,241.178 655.172,240.94 655.596,240.516C656.02,240.092 656.258,239.517 656.258,238.917C656.258,227.998 656.258,180.787 656.258,169.867C656.258,169.267 656.497,168.692 656.92,168.268C657.344,167.844 657.919,167.606 658.519,167.606C662.727,167.606 671.884,167.606 677.957,167.606C678.893,167.606 679.732,167.03 680.067,166.156C680.403,165.282 680.165,164.292 679.469,163.666C662.786,148.651 603.624,95.405 593.396,86.199C592.536,85.426 591.231,85.426 590.371,86.199C580.143,95.405 520.981,148.651 504.298,163.666C503.602,164.292 503.364,165.282 503.699,166.156C504.035,167.03 504.874,167.606 505.81,167.606C511.883,167.606 521.04,167.606 525.248,167.606C525.847,167.606 526.422,167.844 526.846,168.268C527.27,168.692 527.508,169.267 527.508,169.867C527.508,180.787 527.508,227.998 527.508,238.917C527.508,239.517 527.747,240.092 528.171,240.516C528.595,240.94 529.169,241.178 529.769,241.178C537.585,241.178 563.414,241.178 571.23,241.178Z" style="fill:#fff;fill-rule:nonzero;"/>
    </g>
</svg>
