<?xml version="1.0" encoding="UTF-8" standalone="no"?>
<!DOCTYPE svg PUBLIC "-//W3C//DTD SVG 1.1//EN" "http://www.w3.org/Graphics/SVG/1.1/DTD/svg11.dtd">
<svg width="100%" height="100%" viewBox="0 0 1883 859" version="1.1" xmlns="http://www.w3.org/2000/svg" xmlns:xlink="http://www.w3.org/1999/xlink" xml:space="preserve" style="fill-rule:evenodd;clip-rule:evenodd;stroke-linejoin:round;stroke-miterlimit:1.41421;">
    <g transform="matrix(1,0,0,1,-812.471,-811.061)">
        <g transform="matrix(4.78188,0,0,4.78188,-8886.28,-4621.2)">
            <path d="M2366.19,1203.71C2366.81,1203.67 2367.43,1203.65 2368.05,1203.63C2368.4,1203.63 2368.75,1203.62 2369.11,1203.62C2371.02,1203.64 2372.92,1203.78 2374.82,1204.06C2378.57,1204.61 2382.25,1205.69 2385.71,1207.25C2390.36,1209.36 2394.6,1212.33 2398.17,1215.98C2401.56,1219.46 2404.33,1223.53 2406.3,1227.97C2408.02,1231.84 2409.14,1235.97 2409.59,1240.18C2410.07,1244.66 2409.82,1249.21 2408.84,1253.61C2407.97,1257.44 2406.55,1261.15 2404.63,1264.59C2402.51,1268.38 2399.78,1271.83 2396.58,1274.78C2393.12,1277.96 2389.12,1280.54 2384.8,1282.37C2382.32,1283.42 2379.73,1284.22 2377.09,1284.76C2374.46,1285.3 2371.79,1285.58 2369.11,1285.6C2366.51,1285.61 2363.91,1285.38 2361.35,1284.91C2358.61,1284.4 2355.93,1283.61 2353.35,1282.56C2352.73,1282.31 2352.12,1282.04 2351.51,1281.75L2351.51,1303.66C2351.51,1310.18 2346.22,1315.48 2339.7,1315.48C2333.18,1315.48 2327.89,1310.18 2327.89,1303.66L2327.89,1246.19C2327.78,1243.33 2327.97,1240.45 2328.45,1237.62C2329.12,1233.73 2330.37,1229.93 2332.13,1226.39C2332.22,1226.21 2332.31,1226.03 2332.4,1225.85C2328.78,1223.83 2326.32,1219.96 2326.32,1215.52C2326.32,1209 2331.62,1203.71 2338.13,1203.71L2366.19,1203.71ZM2368.72,1226.54C2367.84,1226.55 2366.96,1226.62 2366.08,1226.75C2364.47,1227 2362.9,1227.46 2361.42,1228.13C2359.37,1229.06 2357.49,1230.38 2355.92,1231.99C2354.39,1233.55 2353.15,1235.39 2352.28,1237.39C2351.56,1239.02 2351.1,1240.76 2350.89,1242.53C2350.64,1244.69 2350.78,1246.9 2351.32,1249.02C2351.72,1250.65 2352.37,1252.23 2353.22,1253.68C2354.08,1255.16 2355.15,1256.51 2356.38,1257.69C2357.96,1259.19 2359.81,1260.41 2361.82,1261.26C2364,1262.19 2366.36,1262.66 2368.72,1262.68C2371.1,1262.69 2373.47,1262.25 2375.66,1261.35C2377.72,1260.51 2379.61,1259.28 2381.23,1257.76C2382.79,1256.29 2384.09,1254.55 2385.04,1252.63C2385.86,1250.98 2386.42,1249.2 2386.7,1247.37C2387.05,1245.14 2386.97,1242.84 2386.47,1240.63C2386.07,1238.84 2385.39,1237.12 2384.47,1235.54C2382.64,1232.39 2379.85,1229.83 2376.57,1228.27C2375.1,1227.58 2373.54,1227.08 2371.94,1226.8C2371.03,1226.65 2370.12,1226.57 2369.2,1226.54C2369.04,1226.54 2368.88,1226.54 2368.72,1226.54Z" style="fill:rgb(39,183,255);"/>
            <g transform="matrix(1,0,0,1,472.174,-1.45276)">
                <path d="M1831.22,1205.09C1831.68,1205.12 1831.79,1205.12 1832.25,1205.18C1833.1,1205.3 1833.93,1205.51 1834.74,1205.81C1836.18,1206.35 1837.51,1207.19 1838.63,1208.25C1839.87,1209.44 1840.83,1210.9 1841.44,1212.51C1841.8,1213.47 1842.03,1214.48 1842.12,1215.51C1842.16,1215.96 1842.16,1216.08 1842.17,1216.54C1842.17,1228.42 1842.19,1240.31 1842.17,1252.19C1842.15,1253.75 1842.04,1255.32 1841.83,1256.86C1841.36,1260.16 1840.43,1263.38 1839.06,1266.41C1837.17,1270.58 1834.47,1274.36 1831.14,1277.5C1827.95,1280.5 1824.21,1282.9 1820.15,1284.53C1816.42,1286.03 1812.44,1286.87 1808.43,1287.02C1804.74,1287.16 1801.04,1286.73 1797.49,1285.71C1794.06,1284.74 1790.79,1283.24 1787.82,1281.28C1784.77,1279.28 1782.04,1276.8 1779.76,1273.96C1777.41,1271.04 1775.52,1267.74 1774.21,1264.23C1773.25,1261.64 1772.59,1258.94 1772.26,1256.2C1772.1,1254.87 1772.02,1253.54 1772.01,1252.2L1772.01,1251.99L1772.01,1216.54L1772.02,1216.02C1772.03,1215.85 1772.04,1215.68 1772.05,1215.51C1772.08,1215.17 1772.13,1214.83 1772.19,1214.49C1772.43,1213.14 1772.92,1211.84 1773.63,1210.66C1774.16,1209.78 1774.8,1208.96 1775.55,1208.25C1776.66,1207.19 1777.99,1206.35 1779.44,1205.81C1780.88,1205.27 1782.44,1205.02 1783.98,1205.09C1785.18,1205.14 1786.37,1205.39 1787.49,1205.81C1788.78,1206.29 1789.97,1207 1791,1207.91C1792.17,1208.92 1793.12,1210.17 1793.79,1211.56C1794.31,1212.64 1794.66,1213.81 1794.82,1215C1794.87,1215.34 1794.9,1215.68 1794.91,1216.02C1794.92,1216.19 1794.92,1216.36 1794.92,1216.54C1794.92,1228.43 1794.74,1240.32 1794.92,1252.21C1794.94,1252.78 1794.99,1253.34 1795.08,1253.9C1795.24,1254.93 1795.54,1255.94 1795.96,1256.89C1796.99,1259.2 1798.75,1261.17 1800.92,1262.45C1801.91,1263.04 1803,1263.49 1804.12,1263.77C1805.59,1264.14 1807.14,1264.23 1808.65,1264.03C1809.83,1263.88 1810.99,1263.56 1812.08,1263.06C1813.4,1262.47 1814.6,1261.63 1815.63,1260.62C1816.71,1259.55 1817.59,1258.28 1818.21,1256.89C1818.67,1255.87 1818.98,1254.79 1819.13,1253.68C1819.21,1253.11 1819.25,1252.53 1819.25,1251.95L1819.25,1216.54C1819.26,1216.08 1819.26,1215.96 1819.3,1215.51C1819.37,1214.65 1819.55,1213.81 1819.81,1213C1820.34,1211.36 1821.24,1209.86 1822.43,1208.62C1823.61,1207.38 1825.08,1206.41 1826.68,1205.81C1827.64,1205.45 1828.66,1205.21 1829.68,1205.12C1830.14,1205.08 1830.25,1205.09 1830.71,1205.08C1830.88,1205.08 1831.05,1205.09 1831.22,1205.09Z" style="fill:rgb(39,183,255);fill-rule:nonzero;"/>
            </g>
            <g transform="matrix(0.522134,-0.522134,0.522134,0.522134,647.419,1497.45)">
                <path d="M1770.75,1206.11C1771.55,1206.92 1772.33,1207.75 1773.07,1208.6C1774.5,1210.22 1775.83,1211.93 1777.06,1213.7C1780.94,1219.3 1783.81,1225.6 1785.47,1232.21C1786.19,1235.09 1786.68,1238.03 1786.95,1240.99C1787.09,1242.55 1787.15,1244.12 1787.17,1245.7L1787.17,1246.01C1787.17,1246.25 1787.17,1246.48 1787.16,1246.72C1787.14,1247.19 1787.1,1247.66 1787.03,1248.12C1786.82,1249.76 1786.33,1251.36 1785.61,1252.84C1784.69,1254.75 1783.37,1256.46 1781.76,1257.84C1780.33,1259.07 1778.67,1260.03 1776.9,1260.67C1775.35,1261.22 1773.71,1261.53 1772.06,1261.58C1770.65,1261.61 1769.23,1261.45 1767.86,1261.11C1765.57,1260.53 1763.43,1259.43 1761.63,1257.91C1760.01,1256.54 1758.68,1254.84 1757.74,1252.93C1757.01,1251.46 1756.52,1249.86 1756.29,1248.23C1756.22,1247.76 1756.18,1247.29 1756.15,1246.82C1756.13,1246.43 1756.14,1246.23 1756.13,1245.89C1756.13,1245.62 1756.13,1245.34 1756.12,1245.06C1756.04,1243.27 1755.8,1241.49 1755.36,1239.76C1754.54,1236.46 1753.04,1233.35 1751.01,1230.63C1748.43,1227.18 1744.98,1224.38 1741.06,1222.58C1737.86,1221.1 1734.35,1220.31 1730.82,1220.25C1727.42,1220.18 1724.02,1220.78 1720.86,1222.03C1717.86,1223.21 1715.1,1224.97 1712.73,1227.16C1710.49,1229.25 1708.62,1231.73 1707.24,1234.46C1706.06,1236.82 1705.23,1239.35 1704.82,1241.96C1704.34,1244.99 1704.39,1248.11 1704.99,1251.12C1705.48,1253.59 1706.34,1255.99 1707.53,1258.21C1708.83,1260.64 1710.52,1262.85 1712.51,1264.75C1714.39,1266.54 1716.53,1268.05 1718.86,1269.21C1721.03,1270.29 1723.35,1271.05 1725.74,1271.48C1727.13,1271.73 1728.55,1271.86 1729.97,1271.88L1730.15,1271.88L1730.37,1271.88L1731.07,1271.9C1731.31,1271.92 1731.54,1271.93 1731.78,1271.95C1732.25,1272 1732.72,1272.06 1733.18,1272.15C1734.8,1272.45 1736.37,1273.02 1737.81,1273.82C1739.05,1274.5 1740.19,1275.35 1741.2,1276.34C1742.71,1277.83 1743.91,1279.63 1744.7,1281.59C1745.41,1283.34 1745.79,1285.22 1745.83,1287.1C1745.86,1288.75 1745.63,1290.4 1745.14,1291.98C1744.59,1293.78 1743.7,1295.48 1742.54,1296.96C1741.38,1298.44 1739.95,1299.71 1738.33,1300.69C1736.52,1301.78 1734.48,1302.5 1732.38,1302.78C1731.91,1302.84 1731.44,1302.89 1730.97,1302.9C1730.51,1302.92 1730.05,1302.92 1729.59,1302.91C1728.86,1302.91 1728.13,1302.88 1727.4,1302.85C1722.66,1302.6 1717.95,1301.77 1713.42,1300.36C1707.26,1298.44 1701.45,1295.47 1696.29,1291.61C1691.2,1287.8 1686.75,1283.13 1683.18,1277.86C1680.15,1273.37 1677.77,1268.46 1676.12,1263.3C1674.39,1257.85 1673.5,1252.14 1673.46,1246.43C1673.44,1242.94 1673.73,1239.45 1674.35,1236.02C1674.99,1232.44 1675.97,1228.93 1677.29,1225.54C1679.77,1219.13 1683.42,1213.2 1688.01,1208.09C1692.19,1203.43 1697.14,1199.47 1702.6,1196.41C1707.06,1193.92 1711.85,1192.04 1716.81,1190.83C1722.87,1189.35 1729.17,1188.88 1735.39,1189.43C1741.25,1189.95 1747.03,1191.39 1752.45,1193.68C1757.09,1195.65 1761.46,1198.23 1765.42,1201.35C1767.12,1202.68 1768.73,1204.11 1770.27,1205.62C1770.43,1205.79 1770.59,1205.95 1770.75,1206.11Z" style="fill:rgb(39,183,255);fill-rule:nonzero;"/>
            </g>
            <g transform="matrix(1,0,0,1,470.174,-1.45276)">
                <path d="M1677.16,1275.59C1677.16,1282.11 1671.87,1287.4 1665.35,1287.4C1658.84,1287.4 1653.54,1282.11 1653.54,1275.59L1653.54,1216.54C1653.54,1210.02 1658.84,1204.72 1665.35,1204.72C1671.87,1204.72 1677.16,1210.02 1677.16,1216.54L1677.16,1275.59Z" style="fill:rgb(39,183,255);"/>
            </g>
            <path d="M2068.1,1203.71C2068.72,1203.67 2069.34,1203.65 2069.96,1203.63C2070.31,1203.63 2070.66,1203.62 2071.01,1203.62C2072.92,1203.64 2074.83,1203.78 2076.72,1204.06C2080.48,1204.61 2084.16,1205.69 2087.62,1207.25C2091.97,1209.22 2095.97,1211.95 2099.38,1215.29C2102.61,1218.45 2105.32,1222.13 2107.35,1226.17C2109.1,1229.62 2110.34,1233.32 2111.05,1237.12C2111.82,1241.3 2111.94,1245.6 2111.41,1249.82C2110.86,1254.09 2109.64,1258.27 2107.79,1262.15C2105.71,1266.54 2102.85,1270.54 2099.38,1273.93C2095.73,1277.5 2091.41,1280.38 2086.7,1282.37C2084.07,1283.49 2081.31,1284.32 2078.49,1284.86C2076.03,1285.34 2073.52,1285.58 2071.01,1285.6C2068.33,1285.61 2065.64,1285.37 2063,1284.86C2060.35,1284.35 2057.75,1283.58 2055.25,1282.56C2054.63,1282.31 2054.02,1282.04 2053.41,1281.75L2053.41,1303.66C2053.41,1310.18 2048.12,1315.48 2041.6,1315.48C2035.09,1315.48 2029.79,1310.18 2029.79,1303.66L2029.79,1246.19C2029.72,1244.36 2029.78,1242.52 2029.95,1240.69C2030.35,1236.47 2031.41,1232.32 2033.09,1228.42C2033.47,1227.55 2033.87,1226.69 2034.31,1225.85C2030.68,1223.83 2028.23,1219.96 2028.23,1215.52C2028.23,1209 2033.52,1203.71 2040.04,1203.71L2068.1,1203.71ZM2070.63,1226.54C2069.78,1226.55 2068.94,1226.61 2068.1,1226.73C2066.45,1226.97 2064.84,1227.45 2063.33,1228.13C2061.77,1228.84 2060.31,1229.77 2059.01,1230.88C2057.33,1232.32 2055.91,1234.07 2054.86,1236.01C2054.01,1237.56 2053.4,1239.23 2053.05,1240.96C2052.63,1242.99 2052.57,1245.09 2052.86,1247.14C2053.11,1248.94 2053.63,1250.69 2054.41,1252.33C2055.34,1254.3 2056.64,1256.1 2058.21,1257.61C2059.8,1259.15 2061.68,1260.4 2063.72,1261.26C2065.91,1262.19 2068.26,1262.66 2070.63,1262.68C2073,1262.69 2075.37,1262.25 2077.57,1261.35C2079.66,1260.49 2081.58,1259.24 2083.21,1257.69C2084.79,1256.18 2086.09,1254.39 2087.04,1252.43C2087.8,1250.87 2088.32,1249.2 2088.59,1247.49C2088.95,1245.25 2088.89,1242.95 2088.4,1240.74C2087.88,1238.34 2086.86,1236.06 2085.43,1234.08C2083.64,1231.6 2081.23,1229.58 2078.47,1228.27C2076.93,1227.54 2075.3,1227.04 2073.62,1226.77C2072.79,1226.63 2071.95,1226.56 2071.1,1226.54C2070.94,1226.54 2070.79,1226.54 2070.63,1226.54Z" style="fill:rgb(39,183,255);"/>
            <g>
                <g transform="matrix(4.33818,0,0,4.33818,-5992.9,-4024.94)">
                    <circle cx="1937.01" cy="1205.16" r="2.723" style="fill:rgb(39,183,255);"/>
                </g>
                <path d="M2381.5,1182.82C2381.21,1182.62 2380.92,1182.41 2380.64,1182.21C2376.1,1179.01 2371.44,1176 2366.65,1173.19C2354.85,1166.26 2342.33,1160.56 2329.35,1156.24C2318.43,1152.62 2307.19,1149.98 2295.81,1148.36C2278.2,1145.85 2260.25,1145.78 2242.63,1148.14C2234.62,1149.22 2226.68,1150.8 2218.87,1152.87C2211.51,1154.82 2204.27,1157.21 2197.19,1160.02C2183.84,1165.31 2171.08,1172.1 2159.2,1180.17C2155.05,1183 2151.01,1185.97 2147.08,1189.1C2145.12,1190.66 2143.18,1192.26 2141.28,1193.89L2140.87,1194.24L2140.46,1194.6L2138.69,1195.6C2136.69,1195.85 2136.66,1195.85 2134.72,1195.32L2133.11,1194.07C2132.11,1192.31 2132.11,1192.29 2131.86,1190.28L2132.39,1188.32C2132.81,1187.79 2133.2,1187.24 2133.64,1186.72C2133.65,1186.71 2134.49,1185.99 2134.49,1185.99C2135.07,1185.49 2135.64,1185.01 2136.22,1184.52C2138.09,1182.94 2140,1181.4 2141.93,1179.89C2148.31,1174.9 2154.98,1170.27 2161.9,1166.04C2171.59,1160.13 2181.76,1155 2192.29,1150.76C2202.41,1146.68 2212.85,1143.41 2223.49,1141.01C2232.8,1138.9 2242.26,1137.46 2251.78,1136.68C2255.53,1136.38 2259.29,1136.18 2263.06,1136.08C2264.65,1136.04 2266.25,1136.02 2267.85,1136.01C2268.24,1136.01 2268.62,1136.01 2269.01,1136.01C2271.26,1136.02 2273.51,1136.06 2275.75,1136.14C2280.57,1136.31 2285.38,1136.65 2290.17,1137.16C2302.28,1138.45 2314.27,1140.83 2325.95,1144.27C2333.5,1146.49 2340.92,1149.15 2348.16,1152.23C2355.84,1155.5 2363.32,1159.23 2370.55,1163.4C2376.53,1166.85 2382.33,1170.6 2387.94,1174.62L2387.95,1174.63L2387.95,1167.94L2387.95,1167.73C2387.96,1167.55 2387.96,1167.51 2387.99,1167.33C2388.03,1166.92 2388.13,1166.52 2388.27,1166.13C2388.53,1165.43 2388.94,1164.79 2389.47,1164.26C2390.01,1163.72 2390.65,1163.31 2391.35,1163.05C2391.74,1162.91 2392.14,1162.81 2392.55,1162.77C2392.75,1162.74 2392.95,1162.73 2393.16,1162.73C2393.22,1162.73 2393.29,1162.73 2393.36,1162.73C2393.54,1162.74 2393.59,1162.74 2393.77,1162.77C2394.18,1162.81 2394.58,1162.91 2394.96,1163.05C2395.66,1163.31 2396.31,1163.72 2396.84,1164.26C2397.37,1164.79 2397.78,1165.43 2398.04,1166.13C2398.18,1166.52 2398.28,1166.92 2398.33,1167.33C2398.35,1167.53 2398.36,1167.73 2398.37,1167.94L2398.37,1188.03C2398.36,1188.21 2398.36,1188.26 2398.35,1188.44C2398.32,1188.85 2398.24,1189.25 2398.11,1189.64C2397.86,1190.42 2397.42,1191.13 2396.84,1191.71C2396.31,1192.25 2395.66,1192.66 2394.96,1192.92C2394.58,1193.06 2394.18,1193.16 2393.77,1193.2C2393.57,1193.23 2393.36,1193.24 2393.16,1193.24L2373.06,1193.24C2372.86,1193.24 2372.66,1193.23 2372.45,1193.2C2371.91,1193.14 2371.38,1192.99 2370.88,1192.76C2370.26,1192.48 2369.7,1192.07 2369.24,1191.57C2368.82,1191.12 2368.49,1190.59 2368.25,1190.03C2367.96,1189.33 2367.83,1188.58 2367.86,1187.83C2367.89,1187.08 2368.08,1186.34 2368.42,1185.67C2368.64,1185.24 2368.91,1184.85 2369.24,1184.5C2369.61,1184.1 2370.04,1183.75 2370.52,1183.49C2371.05,1183.19 2371.64,1182.98 2372.25,1182.89C2372.52,1182.85 2372.79,1182.83 2373.06,1182.82L2381.5,1182.82Z" style="fill:rgb(39,183,255);"/>
            </g>
        </g>
    </g>
</svg>
